<svg width="34" height="46" viewBox="0 0 34 46" fill="none" xmlns="http://www.w3.org/2000/svg">
<path d="M16.6595 0C7.47339 0 0 7.47339 0 16.6594C0 28.0595 14.9086 44.7955 15.5433 45.5024C16.1395 46.1664 17.1805 46.1653 17.7756 45.5024C18.4104 44.7955 33.319 28.0595 33.319 16.6594C33.3188 7.47339 25.8455 0 16.6595 0ZM16.6595 25.0412C12.0377 25.0412 8.27776 21.2811 8.27776 16.6594C8.27776 12.0376 12.0378 8.27767 16.6595 8.27767C21.2811 8.27767 25.0411 12.0377 25.0411 16.6595C25.0411 21.2812 21.2811 25.0412 16.6595 25.0412Z" fill="url(#paint0_linear_2_63)"/>
<defs>
<linearGradient id="paint0_linear_2_63" x1="16.6595" y1="0" x2="16.6595" y2="46" gradientUnits="userSpaceOnUse">
<stop stop-color="#E70101"/>
<stop offset="1" stop-color="#B70101"/>
</linearGradient>
</defs>
</svg>
