<svg width="26" height="36" viewBox="0 0 26 36" fill="none" xmlns="http://www.w3.org/2000/svg">
<path d="M13 0C5.83176 0 0 5.84874 0 13.0378C0 21.9596 11.6337 35.0574 12.129 35.6106C12.5943 36.1303 13.4066 36.1293 13.871 35.6106C14.3663 35.0574 26 21.9596 26 13.0378C25.9999 5.84874 20.1682 0 13 0ZM13 19.5975C9.39348 19.5975 6.45944 16.6548 6.45944 13.0378C6.45944 9.42076 9.39355 6.47818 13 6.47818C16.6064 6.47818 19.5405 9.42083 19.5405 13.0379C19.5405 16.6549 16.6064 19.5975 13 19.5975Z" fill="url(#paint0_linear_41_290)"/>
<defs>
<linearGradient id="paint0_linear_41_290" x1="13" y1="0" x2="13" y2="36" gradientUnits="userSpaceOnUse">
<stop stop-color="#254763"/>
<stop offset="1" stop-color="#254764"/>
</linearGradient>
</defs>
</svg>
