<svg width="61" height="69" viewBox="0 0 61 69" fill="none" xmlns="http://www.w3.org/2000/svg">
<path d="M30.0187 5.67783C31.4884 6.00032 32.9218 6.2655 34.3189 6.47338C35.801 6.69389 37.3104 6.84659 38.8134 6.81188C39.8631 6.78786 41.663 6.63142 42.2812 5.6143C42.6187 5.05955 42.7858 4.12145 41.9598 3.8609C41.7651 3.79968 41.5508 3.76746 41.317 3.76426C40.9571 3.75963 40.6191 3.77707 40.3031 3.81658C39.5107 3.91625 38.7154 4.00061 37.917 4.06966C37.099 4.14014 36.2656 4.11362 35.4166 3.99011C34.9377 3.9207 33.5789 3.67723 34.1555 2.84965C34.2904 2.65637 34.4516 2.48107 34.6392 2.32374C35.8149 1.33545 37.2576 0.632809 38.7841 0.318863C40.1278 0.0422921 41.4521 -0.0475847 42.757 0.049233C44.6866 0.19179 46.5168 0.827156 48.1389 1.8998C49.395 2.72987 50.3897 3.8132 51.123 5.14979C51.5074 5.85065 51.8153 6.54813 52.0467 7.24222C52.6803 9.14298 52.9684 11.1292 52.9111 13.2008C52.8572 15.1309 52.4573 17.1433 51.9111 19.0339C50.8838 22.588 49.7316 26.0439 48.4544 29.4016C47.7632 31.218 46.9963 33.0461 46.1538 34.886C45.8961 35.448 45.6503 35.9483 45.4164 36.3869C44.6139 37.8899 43.7736 39.4115 42.8547 40.8627C42.6336 41.2116 42.396 41.5285 42.1419 41.8136C42.049 41.9183 41.9433 42.0073 41.8247 42.0806C41.1605 42.4912 40.6314 40.8948 40.5012 40.4879C40.3246 39.9362 40.181 39.4295 40.0703 38.9678C39.7439 37.6071 39.4159 36.2415 39.0863 34.8711C38.7816 33.605 38.4326 32.3725 38.0392 31.1737C37.6993 30.1371 37.3103 29.1643 36.8721 28.2552C36.2511 26.9674 35.4406 25.7357 34.4011 24.796C32.4683 23.049 29.8617 22.5476 27.3656 23.285C25.9771 23.695 24.8209 24.4438 23.8973 25.5312C23.4481 26.0601 23.0448 26.6741 22.6874 27.3732C21.9714 28.7737 21.4946 30.3028 21.131 31.8597C20.9239 32.7468 20.7507 33.6096 20.6115 34.4482C20.3954 35.7474 20.1712 37.144 19.9388 38.6379C19.8298 39.3384 19.6946 40.0086 19.533 40.6486C19.4182 41.1025 19.2511 41.646 18.9489 42.0112C18.5169 42.5334 17.8511 42.1255 17.4753 41.7837C17.0798 41.4239 16.6947 40.9663 16.3198 40.411C15.7987 39.6383 15.3214 38.8183 14.8879 37.9513C14.1874 36.5502 13.5588 35.1266 13.0021 33.6804C11.7246 30.363 10.6459 26.9299 9.76596 23.3811C9.68552 23.0561 9.60632 22.7356 9.52836 22.4195C8.87129 19.7573 8.41425 17.1369 8.15725 14.558C7.95917 12.5734 7.92713 10.4463 8.21171 8.48626C8.45091 6.83377 8.93892 5.30355 9.8658 3.94793C10.6443 2.80925 11.5964 1.92543 12.7223 1.29647C14.3251 0.401087 16.1591 0.00812109 17.9884 0.000112265C19.446 -0.00629479 20.863 0.260666 22.0926 1.02578C22.4122 1.22439 22.7497 1.45451 23.1049 1.71614C23.5321 2.03008 24.0955 2.39902 24.7953 2.82296C25.9892 3.54588 27.5989 4.44928 29.6246 5.53314C29.7481 5.59935 29.8795 5.64758 30.0187 5.67783Z" fill="white"/>
<path d="M9.91764 53.7451C9.07344 53.7363 8.26746 53.3791 7.67702 52.7522C7.08658 52.1252 6.76004 51.2799 6.76923 50.4022C6.77842 49.5244 7.1226 48.6861 7.72604 48.0717C8.32948 47.4573 9.14275 47.1171 9.98695 47.1259C10.8312 47.1347 11.6371 47.4919 12.2276 48.1188C12.818 48.7458 13.1446 49.5911 13.1354 50.4688C13.1262 51.3466 12.782 52.1849 12.1786 52.7993C11.5751 53.4137 10.7618 53.7539 9.91764 53.7451ZM11.8178 51.3261C12.0164 50.8632 12.0426 50.2678 11.9032 49.7948C11.6587 48.9635 10.9742 48.4296 10.1071 48.3762C9.86153 48.3612 9.64743 48.3763 9.46483 48.4215C8.60984 48.6344 8.1003 49.169 7.93621 50.0254C7.89207 50.2575 7.89367 50.5389 7.94101 50.8696C8.05367 51.6592 8.65273 52.2588 9.41784 52.4473C9.79515 52.5399 10.1511 52.5406 10.4857 52.4495C11.1275 52.274 11.5715 51.8995 11.8178 51.3261Z" fill="white"/>
<path d="M27.5714 53.7445C27.1535 53.7386 26.7409 53.6472 26.3571 53.4755C25.9733 53.3038 25.6259 53.0552 25.3347 52.7437C25.0434 52.4323 24.8141 52.0642 24.6598 51.6604C24.5055 51.2567 24.4292 50.8252 24.4352 50.3906C24.4413 49.956 24.5296 49.5268 24.6952 49.1275C24.8607 48.7282 25.1002 48.3666 25.4 48.0634C25.6998 47.7603 26.0541 47.5214 26.4425 47.3605C26.8309 47.1995 27.2459 47.1197 27.6638 47.1255C28.0818 47.1314 28.4944 47.2228 28.8782 47.3945C29.262 47.5662 29.6094 47.8148 29.9006 48.1263C30.1918 48.4377 30.4212 48.8058 30.5755 49.2096C30.7298 49.6133 30.8061 50.0448 30.8 50.4794C30.794 50.914 30.7056 51.3432 30.5401 51.7425C30.3746 52.1418 30.1351 52.5034 29.8353 52.8066C29.5355 53.1097 29.1812 53.3486 28.7928 53.5095C28.4044 53.6705 27.9893 53.7503 27.5714 53.7445ZM27.7031 52.5114C28.5338 52.4869 29.2541 51.986 29.5227 51.2167C29.6878 50.7436 29.706 50.2789 29.5771 49.8226C29.3406 48.9833 28.6529 48.428 27.7778 48.3762C27.4815 48.3586 27.1574 48.3869 26.8792 48.4937C26.0719 48.8033 25.6053 49.4553 25.5786 50.3047C25.5725 50.488 25.5805 50.6662 25.6026 50.8392C25.6523 51.2284 25.8466 51.6353 26.1264 51.9081C26.5574 52.3285 27.083 52.5296 27.7031 52.5114Z" fill="white"/>
<path d="M5.25058 52.3447C5.25023 52.3707 5.26304 52.3837 5.28903 52.3837L6.04506 52.3864C6.04846 52.3864 6.05172 52.3877 6.05412 52.3901C6.05652 52.3925 6.05787 52.3958 6.05787 52.3992V54.9882C6.05787 54.9999 6.052 55.0058 6.04025 55.0058L5.06852 55.0047C5.0527 55.0047 5.03751 54.9985 5.02623 54.9874C5.01494 54.9764 5.00846 54.9613 5.00818 54.9455C4.99964 54.5703 4.99964 54.2031 5.00818 53.844C5.00961 53.7835 5.01548 53.7194 5.0258 53.6518C5.02627 53.6489 5.02609 53.6459 5.02528 53.643C5.02448 53.6402 5.02306 53.6376 5.02112 53.6353C5.01919 53.6331 5.01679 53.6313 5.0141 53.6301C5.0114 53.6289 5.00847 53.6282 5.00551 53.6283L1.06678 53.6278C1.04898 53.6278 1.04008 53.6367 1.04008 53.6544V54.9738C1.04008 54.9948 1.02958 55.0053 1.00858 55.0053H0.034171C0.0113903 55.0053 0 54.9939 0 54.9711V52.412C0 52.3942 0.00889869 52.3853 0.0266961 52.3853L0.482665 52.3858C0.500462 52.3858 0.515412 52.3791 0.527514 52.3656C0.569694 52.3196 0.587314 52.2631 0.615611 52.2107C1.22357 51.0845 1.56937 49.8837 1.65302 48.6084C1.68078 48.188 1.68826 47.7463 1.67545 47.2832C1.6753 47.2791 1.67598 47.2751 1.67745 47.2714C1.67891 47.2676 1.68113 47.2642 1.68397 47.2613C1.68681 47.2584 1.69022 47.2561 1.69398 47.2546C1.69774 47.253 1.70179 47.2522 1.70588 47.2522H5.2036C5.22144 47.2522 5.23855 47.2592 5.25117 47.2717C5.26379 47.2843 5.27087 47.3012 5.27087 47.3189C5.2723 48.926 5.2723 50.533 5.27087 52.1397C5.27087 52.2107 5.25112 52.2737 5.25058 52.3447ZM2.71179 48.7077C2.65875 49.4292 2.53417 50.1525 2.33804 50.8775C2.20563 51.3673 2.01911 51.8519 1.77849 52.3314C1.76034 52.3673 1.77137 52.3853 1.8116 52.3853H4.12027C4.13146 52.3853 4.14219 52.3809 4.1501 52.373C4.15801 52.3651 4.16245 52.3543 4.16245 52.3431V48.5325C4.16245 48.5279 4.16154 48.5233 4.15977 48.5191C4.158 48.5148 4.1554 48.5109 4.15213 48.5076C4.14886 48.5044 4.14497 48.5018 4.1407 48.5C4.13642 48.4982 4.13184 48.4973 4.12721 48.4973L2.76411 48.4962C2.74596 48.4962 2.73546 48.5051 2.73261 48.5229C2.72336 48.5838 2.71641 48.6454 2.71179 48.7077Z" fill="white"/>
<path d="M15.2953 51.0676V53.6016C15.2953 53.6191 15.2864 53.6278 15.2686 53.6278H14.2279C14.2098 53.6278 14.2007 53.6189 14.2007 53.6011V47.2768C14.2007 47.2601 14.2089 47.2517 14.2253 47.2517L15.2712 47.2522C15.2776 47.2522 15.2837 47.2548 15.2882 47.2593C15.2927 47.2638 15.2953 47.2699 15.2953 47.2763V49.586C15.2953 49.6796 15.3259 49.6908 15.3871 49.6196L17.3978 47.2843C17.4065 47.2742 17.4173 47.2662 17.4294 47.2606C17.4414 47.2551 17.4545 47.2522 17.4678 47.2522L18.8074 47.2517C18.81 47.2518 18.8126 47.2526 18.8148 47.2541C18.8169 47.2555 18.8187 47.2576 18.8197 47.26C18.8208 47.2624 18.8212 47.265 18.8208 47.2676C18.8204 47.2702 18.8193 47.2727 18.8175 47.2747L16.2403 50.2556C16.2335 50.2634 16.2297 50.2734 16.2297 50.2837C16.2297 50.294 16.2335 50.304 16.2403 50.3116L19.1438 53.6027C19.1587 53.6198 19.1548 53.6283 19.132 53.6283L17.6744 53.6278C17.6645 53.6278 17.6548 53.6257 17.6457 53.6215C17.6367 53.6174 17.6286 53.6113 17.6221 53.6038L15.3759 51.0372C15.3221 50.976 15.2953 50.9861 15.2953 51.0676Z" fill="white"/>
<path d="M19.3269 48.4514L19.328 47.2703C19.328 47.2655 19.3299 47.2609 19.3333 47.2575C19.3367 47.2541 19.3413 47.2522 19.3461 47.2522H24.0462C24.0511 47.2522 24.0557 47.2541 24.0591 47.2575C24.0625 47.2609 24.0644 47.2655 24.0644 47.2703L24.0665 48.4508C24.0665 48.4557 24.0646 48.4603 24.0612 48.4637C24.0578 48.4671 24.0532 48.469 24.0484 48.469L22.2507 48.4695C22.2483 48.4695 22.2459 48.47 22.2437 48.4709C22.2415 48.4718 22.2395 48.4732 22.2378 48.4749C22.2361 48.4765 22.2348 48.4785 22.2339 48.4807C22.233 48.4829 22.2325 48.4853 22.2325 48.4877V53.6101C22.2325 53.6125 22.232 53.6149 22.2311 53.6171C22.2302 53.6193 22.2289 53.6213 22.2272 53.623C22.2255 53.6247 22.2235 53.626 22.2213 53.6269C22.2191 53.6278 22.2167 53.6283 22.2144 53.6283L21.1465 53.6272C21.1417 53.6272 21.1371 53.6253 21.1337 53.6219C21.1303 53.6185 21.1284 53.6139 21.1284 53.6091L21.1273 48.4866C21.1273 48.4842 21.1268 48.4819 21.1259 48.4797C21.125 48.4775 21.1237 48.4755 21.122 48.4738C21.1203 48.4721 21.1183 48.4708 21.1161 48.4699C21.1139 48.4689 21.1115 48.4685 21.1091 48.4685L19.3451 48.4695C19.3402 48.4695 19.3356 48.4676 19.3322 48.4642C19.3288 48.4608 19.3269 48.4562 19.3269 48.4514Z" fill="white"/>
<path d="M32.9616 51.2523L32.9622 53.5978C32.9622 53.6177 32.952 53.6277 32.9317 53.6277H31.9125C31.8979 53.6277 31.8839 53.6219 31.8736 53.6116C31.8633 53.6013 31.8575 53.5873 31.8575 53.5727V47.3109C31.8575 47.2954 31.8637 47.2806 31.8747 47.2697C31.8857 47.2588 31.9006 47.2527 31.9162 47.2527C32.4409 47.252 33.0059 47.2518 33.6114 47.2521C33.6972 47.2525 33.7823 47.2591 33.8666 47.2719C33.9814 47.289 34.1058 47.2932 34.2142 47.329C35.0254 47.5988 35.4858 48.1265 35.5955 48.9121C35.6446 49.2631 35.615 49.6053 35.5068 49.9388C35.2292 50.7936 34.4235 51.2202 33.5473 51.2208C33.3679 51.2208 33.1834 51.2206 32.9937 51.2202C32.9723 51.2202 32.9616 51.2309 32.9616 51.2523ZM32.9712 48.5191L32.9659 49.9458C32.9659 49.9524 32.9685 49.9588 32.9733 49.9635C32.978 49.9682 32.9843 49.9709 32.991 49.9709L33.8202 49.9741C33.9098 49.9744 33.9987 49.9569 34.0816 49.9225C34.1646 49.8881 34.24 49.8375 34.3036 49.7736C34.3673 49.7096 34.4178 49.6337 34.4524 49.55C34.487 49.4663 34.5049 49.3765 34.5052 49.2858V49.1897C34.5058 49.0067 34.4345 48.831 34.3071 48.7011C34.1796 48.5713 34.0064 48.4979 33.8255 48.4972L32.9963 48.494C32.9897 48.494 32.9833 48.4967 32.9786 48.5014C32.9739 48.5061 32.9712 48.5125 32.9712 48.5191Z" fill="white"/>
<path d="M38.9746 52.3138C38.9729 52.2903 38.9798 52.2727 38.9955 52.2609C39.0094 52.2499 39.0199 52.2364 39.027 52.2203C39.0458 52.178 39.0661 52.1362 39.0878 52.0949C39.6146 51.0854 39.9307 50.0211 40.0361 48.902C40.0781 48.4578 40.098 47.9173 40.0959 47.2805C40.0959 47.2616 40.1053 47.2522 40.1242 47.2522H43.6497C43.6562 47.2522 43.6624 47.2548 43.667 47.2594C43.6716 47.264 43.6742 47.2702 43.6742 47.2768V52.3597C43.6742 52.3665 43.677 52.373 43.6819 52.3778C43.6868 52.3826 43.6934 52.3853 43.7004 52.3853L44.4196 52.3859C44.4335 52.3859 44.4468 52.3914 44.4566 52.4012C44.4664 52.411 44.4719 52.4243 44.4719 52.4382V54.9519C44.4719 54.9659 44.4663 54.9793 44.4563 54.9893C44.4463 54.9992 44.4327 55.0047 44.4185 55.0047L43.4484 55.0053C43.4295 55.0053 43.4201 54.996 43.4201 54.9775V53.6544C43.4201 53.6367 43.4112 53.6278 43.3934 53.6278H39.4824C39.4753 53.6278 39.4685 53.6306 39.4635 53.6356C39.4585 53.6406 39.4557 53.6474 39.4557 53.6544L39.4562 54.9503C39.4562 54.9647 39.4505 54.9786 39.4401 54.9888C39.4298 54.999 39.4158 55.0047 39.4013 55.0047L38.437 55.0053C38.4146 55.0053 38.4034 54.9941 38.4034 54.9716V52.436C38.4034 52.4154 38.4137 52.4036 38.4343 52.4008C38.5799 52.3805 38.733 52.378 38.8935 52.3933C38.9043 52.3943 38.9152 52.3929 38.9254 52.3892C38.9356 52.3856 38.9449 52.3798 38.9526 52.3722C38.9604 52.3646 38.9663 52.3555 38.9701 52.3454C38.9739 52.3353 38.9755 52.3245 38.9746 52.3138ZM41.1397 48.5331C41.0922 49.3388 40.9523 50.1578 40.7409 50.9224C40.6102 51.3936 40.4266 51.8656 40.1899 52.3383C40.1874 52.3433 40.1863 52.3487 40.1865 52.3542C40.1868 52.3597 40.1884 52.3651 40.1913 52.3698C40.1942 52.3745 40.1982 52.3784 40.203 52.3811C40.2078 52.3838 40.2132 52.3853 40.2187 52.3853H42.5274C42.5455 52.3853 42.5546 52.3762 42.5546 52.3581V48.5277C42.5546 48.5082 42.5446 48.4984 42.5247 48.4984L41.1755 48.4994C41.153 48.4994 41.1411 48.5106 41.1397 48.5331Z" fill="white"/>
<path d="M46.7272 51.002V52.3549C46.7272 52.363 46.7304 52.3707 46.7361 52.3764C46.7418 52.3822 46.7496 52.3854 46.7576 52.3854L48.9702 52.3859C48.9783 52.3859 48.986 52.3891 48.9917 52.3948C48.9974 52.4005 49.0006 52.4083 49.0006 52.4163L49.0001 53.5974C49.0001 53.6054 48.9969 53.6132 48.9912 53.6189C48.9855 53.6246 48.9778 53.6278 48.9697 53.6278L45.6508 53.6283C45.6428 53.6283 45.635 53.6251 45.6293 53.6194C45.6236 53.6137 45.6204 53.606 45.6204 53.5979V47.2821C45.6204 47.2741 45.6236 47.2663 45.6293 47.2606C45.635 47.2549 45.6428 47.2517 45.6508 47.2517L48.9697 47.2528C48.9778 47.2528 48.9855 47.256 48.9912 47.2617C48.9969 47.2674 49.0001 47.2751 49.0001 47.2832V48.4648C49.0001 48.4728 48.9969 48.4806 48.9912 48.4863C48.9855 48.492 48.9778 48.4952 48.9697 48.4952L46.7576 48.4957C46.7496 48.4957 46.7418 48.499 46.7361 48.5047C46.7304 48.5104 46.7272 48.5181 46.7272 48.5262V49.6859C46.7272 49.6939 46.7304 49.7017 46.7361 49.7074C46.7418 49.7131 46.7496 49.7163 46.7576 49.7163L48.7097 49.7179C48.7177 49.7179 48.7255 49.7211 48.7312 49.7268C48.7369 49.7325 48.7401 49.7403 48.7401 49.7483L48.7422 50.9427C48.7422 50.9508 48.739 50.9585 48.7333 50.9642C48.7276 50.9699 48.7199 50.9731 48.7118 50.9731L46.7576 50.9715C46.7496 50.9715 46.7418 50.9747 46.7361 50.9805C46.7304 50.9862 46.7272 50.9939 46.7272 51.002Z" fill="white"/>
<path d="M51.3884 50.9934V53.5946C51.3884 53.6167 51.3773 53.6278 51.3553 53.6278H50.3344C50.3202 53.6278 50.3067 53.6221 50.2966 53.6121C50.2866 53.6021 50.281 53.5885 50.281 53.5744V47.3035C50.281 47.2899 50.2864 47.2768 50.2959 47.2672C50.3054 47.2576 50.3183 47.2522 50.3317 47.2522H51.3579C51.3782 47.2522 51.3884 47.2623 51.3884 47.2826V49.6863C51.3884 49.7038 51.396 49.7166 51.4113 49.7248C51.4786 49.7611 51.5523 49.7173 51.6206 49.7173C52.4315 49.7166 53.2421 49.7164 54.0526 49.7168C54.113 49.7168 54.1781 49.7451 54.2352 49.7397C54.2666 49.7369 54.2822 49.7196 54.2822 49.6879L54.2827 47.3045C54.2827 47.2906 54.2883 47.2773 54.2981 47.2675C54.3079 47.2577 54.3212 47.2522 54.3351 47.2522H55.3698C55.3746 47.2522 55.3792 47.2541 55.3826 47.2575C55.3861 47.2609 55.388 47.2655 55.388 47.2703V53.5968C55.388 53.6174 55.3778 53.6278 55.3575 53.6278L54.3313 53.6283C54.3184 53.6283 54.3061 53.6232 54.297 53.6142C54.2879 53.6052 54.2827 53.593 54.2827 53.5802L54.2822 50.9971C54.2822 50.9804 54.274 50.972 54.2577 50.972H51.4097C51.3955 50.972 51.3884 50.9791 51.3884 50.9934Z" fill="white"/>
<path d="M59.1782 48.4882V53.5973C59.1782 53.6176 59.1681 53.6278 59.1478 53.6278H58.1312C58.1156 53.6278 58.1007 53.6216 58.0897 53.6105C58.0787 53.5995 58.0725 53.5846 58.0725 53.569L58.072 48.5032C58.072 48.494 58.0683 48.4851 58.0618 48.4786C58.0553 48.4721 58.0465 48.4685 58.0373 48.4685L56.294 48.469C56.2849 48.469 56.2762 48.4654 56.2698 48.459C56.2634 48.4526 56.2598 48.4439 56.2598 48.4348L56.2604 47.3168C56.2604 47.2997 56.2672 47.2832 56.2793 47.2711C56.2914 47.259 56.3078 47.2522 56.325 47.2522H60.9685C60.9895 47.2522 61 47.2625 61 47.2832V48.4386C61 48.4589 60.9898 48.469 60.9695 48.469L59.198 48.4685C59.1848 48.4685 59.1782 48.4751 59.1782 48.4882Z" fill="white"/>
<path d="M2.33348 62.1362C2.93187 62.1362 3.43357 62.3933 3.83856 62.9076C4.24356 63.4218 4.44605 64.0236 4.44605 64.713C4.44605 65.1931 4.34594 65.6345 4.14572 66.0372C3.9455 66.4399 3.68271 66.7493 3.35735 66.9655C3.03426 67.1793 2.69297 67.2863 2.33348 67.2863C1.73509 67.2863 1.23339 67.0303 0.828399 66.5184C0.423404 66.0042 0.220906 65.4024 0.220906 64.713C0.220906 64.2306 0.321017 63.7881 0.52124 63.3854C0.721462 62.9826 0.983116 62.6743 1.3062 62.4605C1.63156 62.2443 1.97399 62.1362 2.33348 62.1362ZM2.33348 62.5629C1.83065 62.5629 1.40518 62.7858 1.05706 63.2318C0.733976 63.6459 0.572433 64.1396 0.572433 64.713C0.572433 65.3296 0.756729 65.8495 1.12532 66.2727C1.46661 66.664 1.86933 66.8597 2.33348 66.8597C2.83404 66.8597 3.25951 66.6367 3.6099 66.1908C3.93298 65.7789 4.09453 65.2863 4.09453 64.713C4.09453 64.0964 3.91023 63.5765 3.54164 63.1533C3.20035 62.7597 2.79763 62.5629 2.33348 62.5629ZM3.01264 65.1293L3.35393 65.2522C3.29705 65.5457 3.17532 65.7755 2.98875 65.9416C2.80446 66.1054 2.58831 66.1873 2.34031 66.1873C2.02177 66.1873 1.7567 66.0611 1.5451 65.8085C1.33578 65.556 1.23112 65.1931 1.23112 64.7198C1.23112 64.2465 1.33464 63.8859 1.54169 63.6379C1.75101 63.3899 2.02518 63.2659 2.3642 63.2659C2.59855 63.2659 2.79991 63.3364 2.96828 63.4775C3.13665 63.6186 3.25155 63.8165 3.31298 64.0714L2.97852 64.1703C2.92163 63.9974 2.83745 63.8677 2.72596 63.7813C2.61675 63.6925 2.49161 63.6482 2.35054 63.6482C2.13895 63.6482 1.96261 63.7403 1.82155 63.9246C1.68048 64.1089 1.60995 64.3819 1.60995 64.7437C1.60995 65.0895 1.67707 65.35 1.81131 65.5252C1.94555 65.7004 2.11278 65.788 2.313 65.788C2.47682 65.788 2.62358 65.7311 2.75326 65.6174C2.88295 65.5013 2.96941 65.3387 3.01264 65.1293ZM8.91352 66.6344V67.2249H6.20028C6.19345 66.986 6.26512 66.7186 6.41529 66.4228C6.56773 66.127 6.84531 65.7778 7.24803 65.3751C7.71901 64.9064 8.02731 64.5446 8.17292 64.2898C8.31854 64.0327 8.39135 63.7938 8.39135 63.5731C8.39135 63.3182 8.31626 63.1112 8.1661 62.9519C8.0182 62.7904 7.83505 62.7096 7.61662 62.7096C7.38227 62.7096 7.19001 62.7961 7.03985 62.969C6.88968 63.1419 6.8146 63.3899 6.8146 63.713L6.29584 63.6482C6.33224 63.1681 6.46762 62.8074 6.70197 62.5663C6.9386 62.3228 7.24917 62.2011 7.63369 62.2011C8.05233 62.2011 8.36859 62.3422 8.58247 62.6243C8.79862 62.9064 8.90669 63.2272 8.90669 63.5867C8.90669 63.9053 8.82251 64.2113 8.65414 64.5048C8.48577 64.796 8.1661 65.1851 7.69512 65.672C7.39479 65.9792 7.20025 66.1885 7.11152 66.3C7.02506 66.4114 6.95452 66.5229 6.89992 66.6344H8.91352ZM9.44593 64.7573C9.44593 63.9178 9.55855 63.2818 9.7838 62.8495C10.0113 62.4172 10.3458 62.2011 10.7872 62.2011C11.1785 62.2011 11.4868 62.3763 11.7121 62.7267C11.9851 63.1499 12.1216 63.8268 12.1216 64.7573C12.1216 65.5924 12.009 66.2272 11.7838 66.6617C11.5585 67.094 11.224 67.3102 10.7804 67.3102C10.389 67.3102 10.0682 67.1191 9.81793 66.7368C9.56993 66.3546 9.44593 65.6947 9.44593 64.7573ZM9.96127 64.7573C9.96127 65.5696 10.0386 66.1145 10.1933 66.3921C10.3503 66.6674 10.5506 66.8051 10.794 66.8051C11.0238 66.8051 11.2161 66.6651 11.3708 66.3853C11.5255 66.1054 11.6029 65.5628 11.6029 64.7573C11.6029 63.9428 11.5244 63.3979 11.3674 63.1226C11.2127 62.8473 11.0113 62.7096 10.7633 62.7096C10.5358 62.7096 10.3447 62.8495 10.1899 63.1294C10.0375 63.4093 9.96127 63.9519 9.96127 64.7573ZM15.2888 66.6344V67.2249H12.5755C12.5687 66.986 12.6404 66.7186 12.7906 66.4228C12.943 66.127 13.2206 65.7778 13.6233 65.3751C14.0943 64.9064 14.4026 64.5446 14.5482 64.2898C14.6938 64.0327 14.7666 63.7938 14.7666 63.5731C14.7666 63.3182 14.6915 63.1112 14.5414 62.9519C14.3935 62.7904 14.2103 62.7096 13.9919 62.7096C13.7575 62.7096 13.5653 62.7961 13.4151 62.969C13.2649 63.1419 13.1899 63.3899 13.1899 63.713L12.6711 63.6482C12.7075 63.1681 12.8429 62.8074 13.0772 62.5663C13.3139 62.3228 13.6244 62.2011 14.009 62.2011C14.4276 62.2011 14.7439 62.3422 14.9577 62.6243C15.1739 62.9064 15.282 63.2272 15.282 63.5867C15.282 63.9053 15.1978 64.2113 15.0294 64.5048C14.861 64.796 14.5414 65.1851 14.0704 65.672C13.77 65.9792 13.5755 66.1885 13.4868 66.3C13.4003 66.4114 13.3298 66.5229 13.2752 66.6344H15.2888ZM17.4355 67.2249V66.0269H15.6574V65.4638L17.531 62.2216H17.9406V65.4638H18.4969V66.0269H17.9406V67.2249H17.4355ZM17.4355 65.4638V63.2079L16.1522 65.4638H17.4355ZM21.1931 62.2216H23.6879V66.6344H24.0565V68.3921H23.5718V67.2249H20.862V68.3921H20.3774V66.6344H20.6948C21.027 66.0292 21.1931 64.8017 21.1931 62.9519V62.2216ZM23.1452 62.812H21.7152V63.068C21.7152 63.4889 21.6845 64.0668 21.6231 64.8017C21.5639 65.5343 21.4411 66.1452 21.2545 66.6344H23.1452V62.812ZM24.5513 64.7881C24.5513 63.9348 24.7391 63.2796 25.1145 62.8222C25.4899 62.3626 25.9575 62.1328 26.5172 62.1328C26.8789 62.1328 27.2088 62.2352 27.5069 62.44C27.805 62.6448 28.0405 62.9428 28.2134 63.3342C28.3886 63.7232 28.4762 64.1874 28.4762 64.7266C28.4762 65.4684 28.3078 66.0724 27.9711 66.5389C27.6002 67.0531 27.1144 67.3102 26.5138 67.3102C25.9085 67.3102 25.4216 67.0462 25.053 66.5184C24.7186 66.0406 24.5513 65.4638 24.5513 64.7881ZM25.1111 64.7983C25.1111 65.4149 25.2464 65.8938 25.5172 66.2351C25.7902 66.5741 26.1213 66.7436 26.5103 66.7436C26.9085 66.7436 27.2418 66.5719 27.5103 66.2283C27.7811 65.8847 27.9164 65.3796 27.9164 64.713C27.9164 64.2829 27.8471 63.8984 27.7083 63.5594C27.6013 63.3 27.4398 63.093 27.2236 62.9383C27.0098 62.7813 26.7754 62.7028 26.5206 62.7028C26.111 62.7028 25.7732 62.8734 25.507 63.2147C25.243 63.556 25.1111 64.0839 25.1111 64.7983ZM29.1758 62.2216H29.7185V64.4126C29.9687 64.4126 30.1428 64.3546 30.2406 64.2386C30.3407 64.1225 30.4704 63.8404 30.6297 63.3922C30.7503 63.0441 30.8504 62.7995 30.93 62.6584C31.0119 62.5174 31.12 62.4081 31.2542 62.3308C31.3908 62.2511 31.5739 62.2113 31.8037 62.2113C31.8697 62.2113 31.9368 62.2147 32.0051 62.2216V62.7983L31.8959 62.7949L31.773 62.7915C31.6251 62.7915 31.5079 62.8347 31.4215 62.9212C31.335 63.0054 31.2304 63.2318 31.1075 63.6004C30.9733 64.0122 30.8584 64.2761 30.7628 64.3922C30.6695 64.5059 30.5535 64.5969 30.4147 64.6652C30.6809 64.7539 30.9425 65.052 31.1996 65.5594L32.0426 67.2249H31.3703L30.6843 65.8665C30.4681 65.4365 30.2952 65.1646 30.1655 65.0508C30.0358 64.9371 29.905 64.8802 29.7731 64.8802C29.7571 64.8802 29.7389 64.8813 29.7185 64.8836V67.2249H29.1758V62.2216ZM33.5579 67.2249V62.812H32.2064V62.2216H35.4589V62.812H34.1006V67.2249H33.5579ZM35.8548 64.7881C35.8548 63.9348 36.0425 63.2796 36.4179 62.8222C36.7934 62.3626 37.2609 62.1328 37.8206 62.1328C38.1824 62.1328 38.5123 62.2352 38.8104 62.44C39.1084 62.6448 39.3439 62.9428 39.5168 63.3342C39.692 63.7232 39.7796 64.1874 39.7796 64.7266C39.7796 65.4684 39.6113 66.0724 39.2745 66.5389C38.9037 67.0531 38.4179 67.3102 37.8172 67.3102C37.212 67.3102 36.7251 67.0462 36.3565 66.5184C36.022 66.0406 35.8548 65.4638 35.8548 64.7881ZM36.4145 64.7983C36.4145 65.4149 36.5499 65.8938 36.8207 66.2351C37.0937 66.5741 37.4247 66.7436 37.8138 66.7436C38.212 66.7436 38.5453 66.5719 38.8138 66.2283C39.0845 65.8847 39.2199 65.3796 39.2199 64.713C39.2199 64.2829 39.1505 63.8984 39.0117 63.5594C38.9048 63.3 38.7433 63.093 38.5271 62.9383C38.3132 62.7813 38.0789 62.7028 37.824 62.7028C37.4145 62.7028 37.0766 62.8734 36.8104 63.2147C36.5465 63.556 36.4145 64.0839 36.4145 64.7983ZM40.4724 67.2249V62.2216H42.0185C42.3825 62.2216 42.651 62.2534 42.8239 62.3171C43.0605 62.4036 43.2494 62.564 43.3905 62.7983C43.5315 63.0327 43.6021 63.3205 43.6021 63.6618C43.6021 64.1123 43.4872 64.4798 43.2574 64.7642C43.0276 65.0486 42.6305 65.1908 42.0663 65.1908H41.0151V67.2249H40.4724ZM41.0151 64.6003H42.0765C42.411 64.6003 42.6556 64.5253 42.8103 64.3751C42.965 64.2227 43.0423 63.994 43.0423 63.6891C43.0423 63.4912 43.0037 63.3217 42.9263 63.1806C42.8512 63.0395 42.7591 62.9428 42.6499 62.8905C42.5429 62.8382 42.3484 62.812 42.0663 62.812H41.0151V64.6003ZM46.2641 62.2216H48.7589V66.6344H49.1275V68.3921H48.6429V67.2249H45.9331V68.3921H45.4484V66.6344H45.7658C46.098 66.0292 46.2641 64.8017 46.2641 62.9519V62.2216ZM48.2163 62.812H46.7863V63.068C46.7863 63.4889 46.7556 64.0668 46.6941 64.8017C46.635 65.5343 46.5121 66.1452 46.3255 66.6344H48.2163V62.812ZM49.7862 67.2249V62.2216H52.752V62.812H50.3288V64.3444H52.5984V64.9314H50.3288V66.6344H52.8476V67.2249H49.7862ZM53.595 67.2249V62.2216H54.1376V64.2761H56.2707V62.2216H56.8133V67.2249H56.2707V64.8666H54.1376V67.2249H53.595ZM58.786 67.2249V62.812H57.4345V62.2216H60.6869V62.812H59.3286V67.2249H58.786Z" fill="white"/>
</svg>
