<svg width="38" height="33" viewBox="0 0 38 33" fill="none" xmlns="http://www.w3.org/2000/svg">
<path d="M8.92197 32.3807C6.5654 32.3781 4.3061 31.4408 2.63976 29.7745C0.973423 28.1082 0.0361374 25.8489 0.0335509 23.4923C0.0335509 23.4776 0.0335509 23.4624 0.0335509 23.4478C0.0335509 23.4185 0.0297508 23.3745 0.0264936 23.3164C-0.155911 20.0885 0.371759 11.3733 9.1896 0.205881C9.26901 0.105584 9.38129 0.0365547 9.50664 0.010969C9.63198 -0.0146166 9.76234 0.00488565 9.8747 0.0660354C9.98707 0.127185 10.0742 0.226054 10.1208 0.3452C10.1674 0.464347 10.1704 0.596117 10.1293 0.717265C10.1043 0.791095 7.69454 8.00964 9.34106 14.6147C11.6602 14.7236 13.8447 15.7355 15.4274 17.4341C17.0101 19.1326 17.8654 21.3831 17.8103 23.7041C17.7553 26.0251 16.7943 28.2325 15.1329 29.8541C13.4715 31.4758 11.2415 32.383 8.91979 32.3818L8.92197 32.3807ZM1.11929 23.5232C1.1253 25.0652 1.58802 26.5707 2.44903 27.8499C3.31004 29.129 4.53075 30.1244 5.95702 30.7103C7.38329 31.2962 8.95118 31.4464 10.4627 31.1419C11.9743 30.8374 13.3618 30.0919 14.4499 28.9994C15.5381 27.907 16.2782 26.5167 16.5769 25.0039C16.8755 23.4912 16.7192 21.9239 16.1277 20.4999C15.5363 19.0759 14.5362 17.8591 13.2537 17.0031C11.9712 16.147 10.4639 15.6902 8.92197 15.6902C8.80308 15.6901 8.68749 15.6511 8.59295 15.579C8.49841 15.5069 8.43014 15.4058 8.39864 15.2912C7.15004 10.7473 7.76239 5.98093 8.3829 3.08852C1.38856 12.8862 0.949373 20.3648 1.11278 23.2556C1.12015 23.3446 1.12233 23.434 1.11929 23.5232Z" fill="url(#paint0_linear_14_41)"/>
<path d="M29.1091 32.3807C26.7526 32.3781 24.4933 31.4408 22.8269 29.7745C21.1606 28.1082 20.2233 25.8489 20.2207 23.4923C20.2207 23.4776 20.2207 23.4624 20.2207 23.4478C20.2207 23.4185 20.2169 23.3745 20.2137 23.3164C20.0313 20.0885 20.5589 11.3733 29.3768 0.205881C29.4562 0.105584 29.5685 0.0365547 29.6938 0.010969C29.8191 -0.0146166 29.9495 0.00488565 30.0619 0.0660354C30.1742 0.127185 30.2614 0.226054 30.308 0.3452C30.3546 0.464347 30.3576 0.596117 30.3165 0.717265C30.2915 0.791095 27.8817 8.00964 29.5282 14.6147C31.8473 14.7236 34.0318 15.7355 35.6145 17.4341C37.1972 19.1326 38.0525 21.3831 37.9975 23.7041C37.9425 26.0251 36.9815 28.2325 35.32 29.8541C33.6586 31.4758 31.4286 32.383 29.107 32.3818L29.1091 32.3807ZM21.3065 23.5232C21.3125 25.0652 21.7752 26.5707 22.6362 27.8499C23.4972 29.129 24.7179 30.1244 26.1442 30.7103C27.5705 31.2962 29.1383 31.4464 30.6499 31.1419C32.1615 30.8374 33.5489 30.0919 34.6371 28.9994C35.7253 27.907 36.4654 26.5167 36.764 25.0039C37.0626 23.4912 36.9064 21.9239 36.3149 20.4999C35.7235 19.0759 34.7234 17.8591 33.4409 17.0031C32.1584 16.147 30.6511 15.6902 29.1091 15.6902C28.9902 15.6901 28.8747 15.6511 28.7801 15.579C28.6856 15.5069 28.6173 15.4058 28.5858 15.2912C27.3372 10.7473 27.9496 5.98093 28.5701 3.08852C21.5757 12.8862 21.136 20.3648 21.2994 23.2556C21.307 23.3446 21.3093 23.434 21.3065 23.5232Z" fill="url(#paint1_linear_14_41)"/>
<defs>
<linearGradient id="paint0_linear_14_41" x1="8.90642" y1="0" x2="8.90642" y2="32.3818" gradientUnits="userSpaceOnUse">
<stop stop-color="#E60101"/>
<stop offset="1" stop-color="#B60101"/>
</linearGradient>
<linearGradient id="paint1_linear_14_41" x1="29.0936" y1="0" x2="29.0936" y2="32.3818" gradientUnits="userSpaceOnUse">
<stop stop-color="#E60101"/>
<stop offset="1" stop-color="#B60101"/>
</linearGradient>
</defs>
</svg>
