<svg width="43" height="43" viewBox="0 0 43 43" fill="none" xmlns="http://www.w3.org/2000/svg">
<path fill-rule="evenodd" clip-rule="evenodd" d="M21.5 0C9.62629 0 0 9.62629 0 21.5C0 33.3737 9.62629 43 21.5 43C33.3737 43 43 33.3737 43 21.5C43 9.62629 33.3737 0 21.5 0ZM31.4656 14.6217C31.1422 18.0214 29.7422 26.2712 29.03 30.079C28.7285 31.6907 28.1348 32.2307 27.5603 32.2836C26.3123 32.3987 25.3641 31.458 24.1547 30.6652C22.2626 29.4248 21.1935 28.653 19.3567 27.4427C17.2336 26.0436 18.6101 25.2751 19.8195 24.0187C20.1361 23.6895 25.6371 18.6857 25.7437 18.2322C25.7572 18.1751 25.7698 17.9634 25.6438 17.8517C25.5178 17.74 25.3322 17.7787 25.1987 17.8089C25.0089 17.8517 21.9854 19.8497 16.13 23.8029C15.2717 24.3924 14.4949 24.6788 13.7978 24.6645C13.0302 24.6477 11.5537 24.2303 10.4561 23.8734C9.10979 23.4358 8.03982 23.204 8.13305 22.4608C8.18092 22.0736 8.71422 21.678 9.73211 21.2732C15.9999 18.5421 20.1789 16.7423 22.2701 15.8722C28.2413 13.3889 29.4819 12.9571 30.2906 12.9428C31.3036 12.9249 31.5481 13.7611 31.4656 14.6217Z" fill="#2F516D"/>
</svg>
