<svg width="43" height="43" viewBox="0 0 43 43" fill="none" xmlns="http://www.w3.org/2000/svg">
<path d="M21.5 0C17.2477 0 13.0909 1.26095 9.55525 3.6234C6.01959 5.98585 3.26388 9.3437 1.6366 13.2723C0.00931569 17.2009 -0.416456 21.5239 0.413126 25.6944C1.24271 29.865 3.29039 33.696 6.29721 36.7028C9.30404 39.7096 13.135 41.7573 17.3056 42.5869C21.4762 43.4165 25.7991 42.9907 29.7277 41.3634C33.6563 39.7361 37.0142 36.9804 39.3766 33.4448C41.7391 29.9091 43 25.7523 43 21.5C43 15.7978 40.7348 10.3292 36.7028 6.2972C32.6708 2.26517 27.2022 0 21.5 0ZM33.8918 29.9143C33.2664 30.0023 30.2075 29.9143 30.0487 29.9143C29.2579 29.9247 28.495 29.6227 27.9256 29.0739C27.2806 28.4509 26.704 27.7668 26.0736 27.1193C25.8879 26.9206 25.6861 26.7375 25.4702 26.572C24.9669 26.186 24.4685 26.2715 24.2315 26.8677C24.0465 27.5093 23.9173 28.1657 23.8455 28.8295C23.8039 29.4306 23.4228 29.8068 22.7485 29.8484C22.3307 29.8703 21.9129 29.8801 21.5 29.8679C19.9951 29.8597 18.5137 29.4937 17.178 28.8002C15.7324 27.9955 14.4728 26.8949 13.4815 25.5703C11.8519 23.4888 10.5497 21.2019 9.38671 18.8443C9.32563 18.7245 8.13336 16.1885 8.10404 16.0688C7.99654 15.6706 8.10404 15.287 8.43387 15.1526C8.64399 15.072 12.5726 15.1526 12.6386 15.1526C12.9309 15.1506 13.2162 15.2416 13.4534 15.4125C13.6905 15.5833 13.8672 15.8252 13.9579 16.103C14.6848 17.9623 15.679 19.7055 16.9093 21.2777C17.0816 21.4871 17.2832 21.6706 17.5079 21.8225C17.8279 22.0424 18.1309 21.9667 18.2628 21.5953C18.4193 21.0835 18.5113 20.5541 18.5364 20.0194C18.5584 18.9591 18.5364 18.2628 18.4778 17.2024C18.4387 16.5232 18.1993 15.9295 17.1976 15.7365C16.8897 15.6803 16.8629 15.4263 17.0607 15.1722C17.4736 14.6469 18.038 14.5614 18.6708 14.5296C19.6139 14.4759 20.5569 14.5125 21.5 14.5296H21.7052C22.1157 14.5281 22.5251 14.5699 22.9268 14.6542C23.1645 14.7027 23.3801 14.8267 23.5417 15.0076C23.7032 15.1885 23.8021 15.4167 23.8235 15.6584C23.872 15.9259 23.8925 16.1977 23.8846 16.4695C23.8601 17.6251 23.8039 18.7832 23.7917 19.9388C23.7804 20.3973 23.8222 20.8556 23.9163 21.3045C24.0507 21.9202 24.4734 22.0742 24.8936 21.6295C25.4382 21.0559 25.9373 20.4408 26.3864 19.7898C27.1823 18.6031 27.8382 17.3282 28.3409 15.9906C28.6146 15.3041 28.8296 15.1526 29.5625 15.1526H33.7306C33.9784 15.1483 34.2255 15.1812 34.4635 15.2503C34.5478 15.2725 34.6266 15.3118 34.6949 15.3658C34.7633 15.4198 34.8198 15.4873 34.8608 15.5641C34.9019 15.641 34.9266 15.7255 34.9335 15.8123C34.9404 15.8991 34.9293 15.9865 34.9009 16.0688C34.6956 16.9826 34.2021 17.7619 33.6793 18.512C32.8315 19.7116 31.9373 20.8819 31.07 22.0668C30.9656 22.22 30.8702 22.3791 30.7841 22.5432C30.4567 23.1345 30.4811 23.4643 30.9551 23.953C31.7125 24.7323 32.5212 25.4604 33.2517 26.2618C33.7875 26.8448 34.2715 27.4735 34.6981 28.1406C35.2185 28.981 34.8886 29.7726 33.8918 29.9143Z" fill="#2F516D"/>
</svg>
