<svg width="26" height="26" viewBox="0 0 26 26" fill="none" xmlns="http://www.w3.org/2000/svg">
<path d="M13 0C10.4288 0 7.91543 0.762436 5.77759 2.19089C3.63975 3.61935 1.97351 5.64967 0.989572 8.02511C0.00563274 10.4006 -0.251811 13.0144 0.249797 15.5362C0.751405 18.0579 1.98953 20.3743 3.80762 22.1924C5.6257 24.0105 7.94208 25.2486 10.4638 25.7502C12.9856 26.2518 15.5994 25.9944 17.9749 25.0104C20.3503 24.0265 22.3806 22.3602 23.8091 20.2224C25.2376 18.0846 26 15.5712 26 13C25.9959 9.55343 24.625 6.24919 22.1879 3.8121C19.7508 1.37501 16.4466 0.00406601 13 0ZM17.381 17.381C17.1594 17.6026 16.8588 17.727 16.5455 17.727C16.2321 17.727 15.9315 17.6026 15.7099 17.381L12.1645 13.8355C11.9428 13.614 11.8183 13.3134 11.8182 13V5.90909C11.8182 5.59565 11.9427 5.29505 12.1643 5.07342C12.386 4.85178 12.6866 4.72727 13 4.72727C13.3134 4.72727 13.614 4.85178 13.8357 5.07342C14.0573 5.29505 14.1818 5.59565 14.1818 5.90909V12.5107L17.381 15.7099C17.6026 15.9315 17.727 16.2321 17.727 16.5455C17.727 16.8588 17.6026 17.1594 17.381 17.381Z" fill="#2F516D"/>
</svg>
