<svg width="43" height="43" viewBox="0 0 43 43" fill="none" xmlns="http://www.w3.org/2000/svg">
<path d="M21.3333 0C9.55306 0 0 9.55306 0 21.3333C0 33.1136 9.55306 42.6667 21.3333 42.6667C33.1136 42.6667 42.6667 33.1136 42.6667 21.3333C42.6667 9.55306 33.1136 0 21.3333 0ZM21.7855 33.7542C21.7852 33.7542 21.7858 33.7542 21.7855 33.7542H21.7803C19.6432 33.7533 17.5433 33.2175 15.6784 32.2005L8.90983 33.9756L10.7214 27.361C9.60385 25.4255 9.01595 23.2295 9.01693 20.9798C9.01986 13.9421 14.7477 8.21648 21.7855 8.21648C25.2009 8.21778 28.4069 9.5472 30.8174 11.9596C33.2282 14.3724 34.555 17.5794 34.5537 20.9899C34.5508 28.028 28.8223 33.7542 21.7855 33.7542Z" fill="#2F516D"/>
<path d="M21.7897 10.3723C15.9359 10.3723 11.1752 15.1311 11.1725 20.9807C11.1719 22.9853 11.7331 24.9374 12.7953 26.6266L13.0475 27.0279L11.9753 30.943L15.9919 29.8896L16.3796 30.1194C18.0088 31.0862 19.8767 31.5976 21.781 31.5982H21.7852C27.6345 31.5982 32.3952 26.8391 32.3978 20.9892C32.3988 18.1542 31.2959 15.4889 29.2923 13.4836C27.2888 11.4784 24.6241 10.3733 21.7897 10.3723ZM28.0319 25.5419C27.766 26.2867 26.4916 26.9667 25.8786 27.0585C25.3288 27.1406 24.6335 27.1747 23.8692 26.9322C23.4056 26.7851 22.8115 26.5888 22.0502 26.2603C18.85 24.8788 16.7598 21.6575 16.6003 21.4446C16.4408 21.2317 15.2975 19.7151 15.2975 18.1451C15.2975 16.5754 16.1218 15.8036 16.4141 15.4846C16.7067 15.1653 17.0524 15.0855 17.265 15.0855C17.4776 15.0855 17.6905 15.0875 17.8763 15.0966C18.0723 15.1064 18.3353 15.0221 18.5941 15.6441C18.8601 16.2828 19.4981 17.8525 19.5778 18.012C19.6576 18.1718 19.7106 18.358 19.6045 18.5709C19.4981 18.7838 19.1446 19.2431 18.807 19.6617C18.6654 19.8372 18.4808 19.9934 18.667 20.3127C18.8529 20.6318 19.4935 21.6764 20.4418 22.5221C21.6605 23.6086 22.6885 23.9452 23.0075 24.1051C23.3262 24.2646 23.5124 24.2379 23.6986 24.0253C23.8845 23.8124 24.4961 23.094 24.7087 22.7747C24.9213 22.4553 25.1341 22.5087 25.4265 22.6152C25.7191 22.7213 27.2875 23.4931 27.6065 23.6526C27.9255 23.8124 28.1381 23.8922 28.2178 24.0253C28.2979 24.1585 28.2979 24.7968 28.0319 25.5419Z" fill="#2F516D"/>
</svg>
